<?xml version="1.0" encoding="utf-8"?>
<!-- Generator: Adobe Illustrator 17.1.0, SVG Export Plug-In . SVG Version: 6.00 Build 0)  -->
<!DOCTYPE svg PUBLIC "-//W3C//DTD SVG 1.1//EN" "http://www.w3.org/Graphics/SVG/1.1/DTD/svg11.dtd">
<svg version="1.1" id="Layer_1" xmlns="http://www.w3.org/2000/svg" xmlns:xlink="http://www.w3.org/1999/xlink" x="0px" y="0px"
	 viewBox="0 0 21.2 26.5" enable-background="new 0 0 21.2 26.5" xml:space="preserve">
<rect x="2.8" y="12" fill="#979695" stroke="#979695" stroke-miterlimit="10" width="2.7" height="2.7"/>
<rect x="6.3" y="12" fill="#979695" stroke="#979695" stroke-miterlimit="10" width="2.7" height="2.7"/>
<rect x="2.8" y="15.5" fill="#979695" stroke="#979695" stroke-miterlimit="10" width="2.7" height="2.7"/>
<rect x="6.3" y="15.5" fill="#979695" stroke="#979695" stroke-miterlimit="10" width="2.7" height="2.7"/>
<rect x="8.5" y="9.8" fill="#979695" stroke="#979695" stroke-miterlimit="10" width="2.7" height="2.7"/>
<rect x="11.1" y="7.8" fill="#979695" stroke="#979695" stroke-miterlimit="10" width="2.7" height="2.7"/>
<rect x="8.7" y="16.3" fill="#979695" stroke="#979695" stroke-miterlimit="10" width="2.7" height="2.7"/>
<rect x="8.7" y="13.1" fill="#979695" stroke="#979695" stroke-miterlimit="10" width="2.7" height="2.7"/>
<rect x="11.1" y="11.1" fill="#979695" stroke="#979695" stroke-miterlimit="10" width="2.7" height="2.7"/>
<rect x="11.1" y="14.2" fill="#979695" stroke="#979695" stroke-miterlimit="10" width="2.7" height="2.7"/>
<rect x="10.9" y="19.4" fill="#979695" stroke="#979695" stroke-miterlimit="10" width="2.7" height="2.7"/>
<rect x="13.3" y="21.5" fill="#979695" stroke="#979695" stroke-miterlimit="10" width="2.7" height="2.7"/>
<rect x="7.6" y="17.7" fill="#979695" stroke="#979695" stroke-miterlimit="10" width="2.7" height="2.7"/>
<rect x="13.3" y="16.1" fill="#979695" stroke="#979695" stroke-miterlimit="10" width="2.7" height="2.7"/>
<rect x="13.3" y="5.4" fill="#979695" stroke="#979695" stroke-miterlimit="10" width="2.7" height="2.7"/>
<rect x="13.3" y="13.1" fill="#979695" stroke="#979695" stroke-miterlimit="10" width="2.7" height="2.7"/>
<rect x="13.3" y="10.4" fill="#979695" stroke="#979695" stroke-miterlimit="10" width="2.7" height="2.7"/>
<rect x="13.3" y="7.8" fill="#979695" stroke="#979695" stroke-miterlimit="10" width="2.7" height="2.7"/>
<rect x="13.3" y="18.6" fill="#979695" stroke="#979695" stroke-miterlimit="10" width="2.7" height="2.7"/>
<rect x="10.9" y="16.8" fill="#979695" stroke="#979695" stroke-miterlimit="10" width="2.7" height="2.7"/>
<rect x="16" y="3.2" fill="#979695" stroke="#979695" stroke-miterlimit="10" width="2.7" height="2.7"/>
<rect x="5.1" y="19.4" fill="#979695" stroke="#979695" stroke-miterlimit="10" width="2.7" height="2.7"/>
<rect x="2.8" y="21.5" fill="#979695" stroke="#979695" stroke-miterlimit="10" width="2.7" height="2.7"/>
<rect x="18.1" y="0.5" fill="#979695" stroke="#979695" stroke-miterlimit="10" width="2.7" height="2.7"/>
<rect x="0.5" y="23.3" fill="#979695" stroke="#979695" stroke-miterlimit="10" width="2.7" height="2.7"/>
</svg>
