<?xml version="1.0" encoding="utf-8"?>
<!-- Generator: Adobe Illustrator 17.1.0, SVG Export Plug-In . SVG Version: 6.00 Build 0)  -->
<!DOCTYPE svg PUBLIC "-//W3C//DTD SVG 1.1//EN" "http://www.w3.org/Graphics/SVG/1.1/DTD/svg11.dtd">
<svg version="1.1" id="Layer_1" xmlns="http://www.w3.org/2000/svg" xmlns:xlink="http://www.w3.org/1999/xlink" x="0px" y="0px"
	 viewBox="0 0 14.2 19.8" enable-background="new 0 0 14.2 19.8" xml:space="preserve">
<rect x="0.5" y="7.1" fill="#979695" stroke="#979695" stroke-miterlimit="10" width="2.7" height="2.7"/>
<rect x="4" y="7.1" fill="#979695" stroke="#979695" stroke-miterlimit="10" width="2.7" height="2.7"/>
<rect x="0.5" y="10.6" fill="#979695" stroke="#979695" stroke-miterlimit="10" width="2.7" height="2.7"/>
<rect x="4" y="10.6" fill="#979695" stroke="#979695" stroke-miterlimit="10" width="2.7" height="2.7"/>
<rect x="6.2" y="4.9" fill="#979695" stroke="#979695" stroke-miterlimit="10" width="2.7" height="2.7"/>
<rect x="8.9" y="2.9" fill="#979695" stroke="#979695" stroke-miterlimit="10" width="2.7" height="2.7"/>
<rect x="6.4" y="11.4" fill="#979695" stroke="#979695" stroke-miterlimit="10" width="2.7" height="2.7"/>
<rect x="6.4" y="8.2" fill="#979695" stroke="#979695" stroke-miterlimit="10" width="2.7" height="2.7"/>
<rect x="8.9" y="6.2" fill="#979695" stroke="#979695" stroke-miterlimit="10" width="2.7" height="2.7"/>
<rect x="8.9" y="9.3" fill="#979695" stroke="#979695" stroke-miterlimit="10" width="2.7" height="2.7"/>
<rect x="8.6" y="14.5" fill="#979695" stroke="#979695" stroke-miterlimit="10" width="2.7" height="2.7"/>
<rect x="11.1" y="16.6" fill="#979695" stroke="#979695" stroke-miterlimit="10" width="2.7" height="2.7"/>
<rect x="5.4" y="12.8" fill="#979695" stroke="#979695" stroke-miterlimit="10" width="2.7" height="2.7"/>
<rect x="11.1" y="11.2" fill="#979695" stroke="#979695" stroke-miterlimit="10" width="2.7" height="2.7"/>
<rect x="11.1" y="0.5" fill="#979695" stroke="#979695" stroke-miterlimit="10" width="2.7" height="2.7"/>
<rect x="11.1" y="8.2" fill="#979695" stroke="#979695" stroke-miterlimit="10" width="2.7" height="2.7"/>
<rect x="11.1" y="5.6" fill="#979695" stroke="#979695" stroke-miterlimit="10" width="2.7" height="2.7"/>
<rect x="11.1" y="2.9" fill="#979695" stroke="#979695" stroke-miterlimit="10" width="2.7" height="2.7"/>
<rect x="11.1" y="13.7" fill="#979695" stroke="#979695" stroke-miterlimit="10" width="2.7" height="2.7"/>
<rect x="8.6" y="11.9" fill="#979695" stroke="#979695" stroke-miterlimit="10" width="2.7" height="2.7"/>
</svg>
